<svg width="48" height="48" fill="none" xmlns="http://www.w3.org/2000/svg"><path fill-rule="evenodd" clip-rule="evenodd" d="M35.738 14.14a3.759 3.759 0 012.644 2.644c.643 2.348.618 7.24.618 7.24s0 4.869-.618 7.216a3.759 3.759 0 01-2.644 2.645c-2.348.617-11.738.617-11.738.617s-9.366 0-11.738-.642a3.759 3.759 0 01-2.644-2.644C9 28.893 9 24 9 24s0-4.868.618-7.216a3.836 3.836 0 012.644-2.669C14.61 13.498 24 13.498 24 13.498s9.39 0 11.738.642zM28.818 24l-7.808 4.497v-8.994L28.819 24z" fill="#000"/></svg>